0
SECTION
2
HEADER
9
$INSUNITS
70
4
9
$ACADVER
1
AC1014
9
$HANDSEED
5
FFFF
0
ENDSEC
0
SECTION
2
TABLES
0
TABLE
2
VPORT
5
8
100
AcDbSymbolTable
0
ENDTAB
0
TABLE
2
LTYPE
5
5
100
AcDbSymbolTable
0
LTYPE
5
14
100
AcDbSymbolTableRecord
100
AcDbLinetypeTableRecord
2
BYBLOCK
70
0
0
LTYPE
5
15
100
AcDbSymbolTableRecord
100
AcDbLinetypeTableRecord
2
BYLAYER
70
0
0
ENDTAB
0
TABLE
2
LAYER
5
2
100
AcDbSymbolTable
70
2
0
LAYER
5
50
100
AcDbSymbolTableRecord
100
AcDbLayerTableRecord
2
0
70
0
6
CONTINUOUS
0
ENDTAB
0
TABLE
2
STYLE
5
3
100
AcDbSymbolTable
70
1
0
STYLE
5
11
100
AcDbSymbolTableRecord
100
AcDbTextStyleTableRecord
2
STANDARD
70
0
0
ENDTAB
0
TABLE
2
VIEW
5
6
100
AcDbSymbolTable
70
0
0
ENDTAB
0
TABLE
2
UCS
5
7
100
AcDbSymbolTable
70
0
0
ENDTAB
0
TABLE
2
APPID
5
9
100
AcDbSymbolTable
70
2
0
APPID
5
12
100
AcDbSymbolTableRecord
100
AcDbRegAppTableRecord
2
ACAD
70
0
0
ENDTAB
0
TABLE
2
DIMSTYLE
5
A
100
AcDbSymbolTable
70
1
0
ENDTAB
0
TABLE
2
BLOCK_RECORD
5
1
100
AcDbSymbolTable
70
1
0
BLOCK_RECORD
5
1F
100
AcDbSymbolTableRecord
100
AcDbBlockTableRecord
2
*MODEL_SPACE
0
BLOCK_RECORD
5
1B
100
AcDbSymbolTableRecord
100
AcDbBlockTableRecord
2
*PAPER_SPACE
0
ENDTAB
0
ENDSEC
0
SECTION
2
BLOCKS
0
BLOCK
5
20
100
AcDbEntity
100
AcDbBlockBegin
2
*MODEL_SPACE
0
ENDBLK
5
21
100
AcDbEntity
100
AcDbBlockEnd
0
BLOCK
5
1C
100
AcDbEntity
100
AcDbBlockBegin
2
*PAPER_SPACE
0
ENDBLK
5
1D
100
AcDbEntity
100
AcDbBlockEnd
0
ENDSEC
0
SECTION
2
ENTITIES
0
LWPOLYLINE
5
100
100
AcDbEntity
8
0
100
AcDbPolyline
90
54
70
1
43
0.0
10
-25.414213562373149
20
-129.9999980926514
42
0.19891236737965801
10
-24.707106781186603
20
-129.70710487383795
10
-24.621320343559653
20
-129.62131843621111
42
0.4142135623730766
10
-24.621320343559653
20
-128.20710487383798
10
-25.38638584712805
20
-127.4420393702696
42
0.21342176528337056
10
-26.14913438421825
20
-127.15069535397046
42
-1.0572796962675159
10
-26.149134384218257
20
-126.15224455648473
42
0.21342176528337331
10
-25.386385847128054
20
-125.86090054018548
10
-24.139097552462353
20
-124.6136122455197
42
0.21342176528342013
10
-23.84775353616314
20
-123.85086370842939
42
-1.057279696274199
10
-22.849302738677725
20
-123.8508637084359
42
0.21342176528339193
10
-22.557958722388399
20
-124.61361224552995
10
-21.79289321883925
20
-125.3786777490991
42
0.41421356237688528
10
-20.378679656456953
20
-125.37867774910829
10
-11.749365317430646
20
-116.749363410082
42
0.22070110148986674
10
-11.45995433072779
20
-115.95887594599591
42
-1.0871664488171935
10
11.459954330727696
20
-115.9588759459959
42
0.22070110148986741
10
11.749365317430556
20
-116.749363410082
10
21.085786437652555
20
-126.08578453030411
10
22.99497474683147
20
-124.17659622107547
42
-2.4142135623954273
10
23.70208152801338
20
-124.17659622107094
10
25.82340187157677
20
-126.29791656463433
42
-2.4142135623733845
10
25.823401871576728
20
-127.00502334582083
10
23.914213562373053
20
-128.9142116550245
10
24.707106781186454
20
-129.70710487383792
42
0.19891236737965967
10
25.414213562372954
20
-129.99999809265142
10
98.999999999999943
20
-129.99999809265145
42
0.41421356237309503
10
99.999999999999943
20
-128.99999809265142
10
99.999999999999972
20
-101.11803208140134
42
0.2134217652833785
10
99.666666666666671
20
-100.37267608890146
42
-1.0572796962675153
10
100.37267799624998
20
-99.666664759318152
42
0.21342176528339049
10
101.11803398874997
20
-99.999998092651452
10
128.99999999999997
20
-99.999998092651452
42
0.41421356237309503
10
129.99999999999997
20
-98.999998092651452
10
129.99999999999997
20
-79.999998092651452
42
0.41421356237309503
10
128.99999999999997
20
-78.999998092651452
10
110.41421356237296
20
-78.999998092651424
42
0.19891236737956006
10
109.7071067811867
20
-79.292891311464601
10
102.29289321881325
20
-86.707104873838233
42
-0.19891236737956014
10
101.58578643762696
20
-86.999998092651424
10
-101.58578643762704
20
-86.999998092651353
42
-0.19891236737956014
10
-102.29289321881332
20
-86.707104873838162
10
-109.70710678118704
20
-79.292891311464786
42
0.19891236737956008
10
-110.41421356237305
20
-78.999998092651339
10
-129.00000000000003
20
-78.999998092651367
42
0.41421356237309503
10
-130.00000000000003
20
-79.999998092651353
10
-130.00000000000003
20
-98.999998092651367
42
0.41421356237309503
10
-129.00000000000003
20
-99.999998092651353
10
-101.11803398875004
20
-99.999998092651367
42
0.2134217652833916
10
-100.37267799625005
20
-99.666664759318095
42
-1.0572796962675099
10
-99.666666666666742
20
-100.37267608890136
42
0.2134217652833785
10
-100.00000000000003
20
-101.11803208140128
10
-100.00000000000006
20
-128.99999809265137
42
0.41421356237309503
10
-99.000000000000057
20
-129.99999809265137
0
LWPOLYLINE
5
101
100
AcDbEntity
8
0
100
AcDbPolyline
90
4
70
1
43
0.0
10
-38.384776310850242
20
-105.95836753230878
10
-26.363961030678965
20
-117.9791828124801
42
-0.99999999999999989
10
-32.020815280171334
20
-123.63603706197247
10
-44.041630560342654
20
-111.6152217818012
42
-0.99999999999999989
0
LWPOLYLINE
5
102
100
AcDbEntity
8
0
100
AcDbPolyline
90
4
70
1
43
0.0
10
26.363961030678858
20
-117.97918281248013
10
38.384776310850171
20
-105.95836753230884
42
-0.99999999999999989
10
44.04163056034254
20
-111.61522178180121
10
32.020815220566597
20
-123.63603712157713
42
-0.99999998946328783
0
CIRCLE
5
103
100
AcDbEntity
8
0
100
AcDbCircle
10
39.499999999999964
20
-94.740998092651438
30
-7.6293945405758734e-06
40
4.8730000000000011
210
1.3127486810586774e-47
220
-2.7771178869131447e-24
230
1
0
CIRCLE
5
104
100
AcDbEntity
8
0
100
AcDbCircle
10
-39.500000000000043
20
-94.740998092651424
30
-7.6293945405758734e-06
40
4.8730000000000011
210
1.3127486810586774e-47
220
-2.7771178869131447e-24
230
1
0
CIRCLE
5
105
100
AcDbEntity
8
0
100
AcDbCircle
10
-25.787000000000042
20
-95.499998092651424
30
-7.6293945405758734e-06
40
1.7000000000000002
210
1.3127486810586774e-47
220
-2.7771178869131447e-24
230
1
0
CIRCLE
5
106
100
AcDbEntity
8
0
100
AcDbCircle
10
25.78699999999996
20
-95.499998092651438
30
-7.6293945405758734e-06
40
1.7000000000000002
210
1.3127486810586774e-47
220
-2.7771178869131447e-24
230
1
0
CIRCLE
5
107
100
AcDbEntity
8
0
100
AcDbCircle
10
-53.000000000000043
20
-92.999998092651396
30
-7.6293945405758734e-06
40
1.7000000000000002
210
1.3127486810586774e-47
220
-2.7771178869131447e-24
230
1
0
CIRCLE
5
108
100
AcDbEntity
8
0
100
AcDbCircle
10
-84.000000000000043
20
-92.999998092651396
30
-7.6293945405758734e-06
40
1.7000000000000002
210
1.3127486810586774e-47
220
-2.7771178869131447e-24
230
1
0
CIRCLE
5
109
100
AcDbEntity
8
0
100
AcDbCircle
10
-84.000000000000057
20
-123.99999809265138
30
-7.6293945405758734e-06
40
1.7000000000000002
210
1.3127486810586774e-47
220
-2.7771178869131447e-24
230
1
0
CIRCLE
5
110
100
AcDbEntity
8
0
100
AcDbCircle
10
-68.500000000000057
20
-108.4999980926514
30
-7.6293945405758734e-06
40
11.063499999999999
210
1.3127486810586774e-47
220
-2.7771178869131447e-24
230
1
0
CIRCLE
5
111
100
AcDbEntity
8
0
100
AcDbCircle
10
-82.500000000000028
20
-111.99999809265137
30
-7.6293945405758734e-06
40
1.4365000000000003
210
1.3127486810586774e-47
220
-2.7771178869131447e-24
230
1
0
CIRCLE
5
112
100
AcDbEntity
8
0
100
AcDbCircle
10
-122.50000000000003
20
-92.499998092651396
30
-7.6293945405758734e-06
40
1.7000000000000002
210
1.3127486810586774e-47
220
-2.7771178869131447e-24
230
1
0
CIRCLE
5
113
100
AcDbEntity
8
0
100
AcDbCircle
10
-53.00000000000005
20
-123.9999980926514
30
-7.6293945405758734e-06
40
1.7000000000000002
210
1.3127486810586774e-47
220
-2.7771178869131447e-24
230
1
0
CIRCLE
5
114
100
AcDbEntity
8
0
100
AcDbCircle
10
-111.50000000000004
20
-82.999998092651396
30
-7.6293945405758734e-06
40
1.4365000000000003
210
1.3127486810586774e-47
220
-2.7771178869131447e-24
230
1
0
CIRCLE
5
115
100
AcDbEntity
8
0
100
AcDbCircle
10
111.49999999999997
20
-82.999998092651467
30
-7.6293945405758734e-06
40
1.4365000000000003
210
1.3127486810586774e-47
220
-2.7771178869131447e-24
230
1
0
CIRCLE
5
116
100
AcDbEntity
8
0
100
AcDbCircle
10
52.999999999999964
20
-123.99999809265142
30
-7.6293945405758734e-06
40
1.7000000000000002
210
1.3127486810586774e-47
220
-2.7771178869131447e-24
230
1
0
CIRCLE
5
117
100
AcDbEntity
8
0
100
AcDbCircle
10
122.49999999999997
20
-92.499998092651481
30
-7.6293945405758734e-06
40
1.7000000000000002
210
1.3127486810586774e-47
220
-2.7771178869131447e-24
230
1
0
CIRCLE
5
118
100
AcDbEntity
8
0
100
AcDbCircle
10
82.499999999999972
20
-111.99999809265144
30
-7.6293945405758734e-06
40
1.4365000000000003
210
1.3127486810586774e-47
220
-2.7771178869131447e-24
230
1
0
CIRCLE
5
119
100
AcDbEntity
8
0
100
AcDbCircle
10
68.499999999999957
20
-108.49999809265142
30
-7.6293945405758734e-06
40
11.063499999999999
210
1.3127486810586774e-47
220
-2.7771178869131447e-24
230
1
0
CIRCLE
5
120
100
AcDbEntity
8
0
100
AcDbCircle
10
83.999999999999943
20
-123.99999809265142
30
-7.6293945405758734e-06
40
1.7000000000000002
210
1.3127486810586774e-47
220
-2.7771178869131447e-24
230
1
0
CIRCLE
5
121
100
AcDbEntity
8
0
100
AcDbCircle
10
83.999999999999972
20
-92.999998092651452
30
-7.6293945405758734e-06
40
1.7000000000000002
210
1.3127486810586774e-47
220
-2.7771178869131447e-24
230
1
0
CIRCLE
5
122
100
AcDbEntity
8
0
100
AcDbCircle
10
52.999999999999972
20
-92.999998092651438
30
-7.6293945405758734e-06
40
1.7000000000000002
210
1.3127486810586774e-47
220
-2.7771178869131447e-24
230
1
0
CIRCLE
5
123
100
AcDbEntity
8
0
100
AcDbCircle
10
-3.7441336050237378e-14
20
-92.499998092651367
30
-7.6293945405758734e-06
40
1.7000000000000002
210
1.3127486810586774e-47
220
-2.7771178869131447e-24
230
1
0
ENDSEC
0
SECTION
2
OBJECTS
0
DICTIONARY
5
C
100
AcDbDictionary
3
ACAD_GROUP
350
D
3
ACAD_MLINESTYLE
350
17
0
DICTIONARY
5
D
100
AcDbDictionary
0
DICTIONARY
5
1A
330
C
100
AcDbDictionary
0
DICTIONARY
5
17
100
AcDbDictionary
0
ENDSEC
0
EOF
