0
SECTION
2
HEADER
9
$INSUNITS
70
4
9
$ACADVER
1
AC1014
9
$HANDSEED
5
FFFF
0
ENDSEC
0
SECTION
2
TABLES
0
TABLE
2
VPORT
5
8
100
AcDbSymbolTable
0
ENDTAB
0
TABLE
2
LTYPE
5
5
100
AcDbSymbolTable
0
LTYPE
5
14
100
AcDbSymbolTableRecord
100
AcDbLinetypeTableRecord
2
BYBLOCK
70
0
0
LTYPE
5
15
100
AcDbSymbolTableRecord
100
AcDbLinetypeTableRecord
2
BYLAYER
70
0
0
ENDTAB
0
TABLE
2
LAYER
5
2
100
AcDbSymbolTable
70
2
0
LAYER
5
50
100
AcDbSymbolTableRecord
100
AcDbLayerTableRecord
2
0
70
0
6
CONTINUOUS
0
ENDTAB
0
TABLE
2
STYLE
5
3
100
AcDbSymbolTable
70
1
0
STYLE
5
11
100
AcDbSymbolTableRecord
100
AcDbTextStyleTableRecord
2
STANDARD
70
0
0
ENDTAB
0
TABLE
2
VIEW
5
6
100
AcDbSymbolTable
70
0
0
ENDTAB
0
TABLE
2
UCS
5
7
100
AcDbSymbolTable
70
0
0
ENDTAB
0
TABLE
2
APPID
5
9
100
AcDbSymbolTable
70
2
0
APPID
5
12
100
AcDbSymbolTableRecord
100
AcDbRegAppTableRecord
2
ACAD
70
0
0
ENDTAB
0
TABLE
2
DIMSTYLE
5
A
100
AcDbSymbolTable
70
1
0
ENDTAB
0
TABLE
2
BLOCK_RECORD
5
1
100
AcDbSymbolTable
70
1
0
BLOCK_RECORD
5
1F
100
AcDbSymbolTableRecord
100
AcDbBlockTableRecord
2
*MODEL_SPACE
0
BLOCK_RECORD
5
1B
100
AcDbSymbolTableRecord
100
AcDbBlockTableRecord
2
*PAPER_SPACE
0
ENDTAB
0
ENDSEC
0
SECTION
2
BLOCKS
0
BLOCK
5
20
100
AcDbEntity
100
AcDbBlockBegin
2
*MODEL_SPACE
0
ENDBLK
5
21
100
AcDbEntity
100
AcDbBlockEnd
0
BLOCK
5
1C
100
AcDbEntity
100
AcDbBlockBegin
2
*PAPER_SPACE
0
ENDBLK
5
1D
100
AcDbEntity
100
AcDbBlockEnd
0
ENDSEC
0
SECTION
2
ENTITIES
0
LWPOLYLINE
5
100
100
AcDbEntity
8
0
100
AcDbPolyline
90
31
70
1
43
0.0
10
122.49999999999949
20
96.200000953674177
10
129.24999999999949
20
96.200000953674163
42
0.41421356237309503
10
129.99999999999946
20
96.950000953674163
10
129.99999999999946
20
99.000000953674288
42
0.41421356237309503
10
128.99999999999946
20
100.00000095367427
10
100.99999999999946
20
100.00000095367429
42
0.41421356237309503
10
99.99999999999946
20
99.000000953674302
10
99.999999999999446
20
84.8588998972224
42
-0.11323701145911272
10
99.699999999998397
20
83.551230214157997
42
0.6621165326936197
10
108.18574929943526
20
73.850000953674297
42
-0.079557321938359765
10
109.12249899919502
20
74.000000953674288
10
115.80000006750436
20
74.000000953674302
42
-0.40508850707101041
10
116.79951166698683
20
73.031250953674288
42
0.40508850707100863
10
119.79804646543425
20
70.12500095367426
10
129.24999999999943
20
70.125000953674245
42
0.41421356237309853
10
129.99999999999946
20
70.875000953674231
10
129.99999999999946
20
72.550000953674228
42
0.41421356237309853
10
129.24999999999946
20
73.300000953674243
10
122.49999999999945
20
73.300000953674228
42
-0.99999999999999989
10
122.49999999999945
20
76.700000953674248
10
129.24999999999946
20
76.70000095367422
42
0.41421356237309503
10
129.99999999999946
20
77.450000953674191
10
129.99999999999946
20
83.550000953674228
42
0.41421356237309503
10
129.24999999999946
20
84.300000953674214
10
122.49999999999946
20
84.300000953674186
42
-0.99999999999999989
10
122.49999999999946
20
87.700000953674191
10
129.24999999999946
20
87.700000953674191
42
0.41421356237309503
10
129.99999999999946
20
88.450000953674177
10
129.99999999999946
20
92.050000953674214
42
0.41421356237309503
10
129.24999999999949
20
92.8000009536742
10
122.49999999999832
20
92.800000950439014
42
-1.000081959448234
0
CIRCLE
5
101
100
AcDbEntity
8
0
100
AcDbCircle
10
-111.49999999999946
20
93.000000953674302
30
-1.5258790497796326e-06
40
1.4365000000000003
210
-2.3668628796135244e-23
220
2.5375667144959903e-24
230
-1
0
CIRCLE
5
102
100
AcDbEntity
8
0
100
AcDbCircle
10
-105.99999999999582
20
80.500000953674288
30
-1.5258790497796328e-06
40
4.8729999999999896
210
-2.3668628796135244e-23
220
2.5375667144959903e-24
230
-1
0
ENDSEC
0
SECTION
2
OBJECTS
0
DICTIONARY
5
C
100
AcDbDictionary
3
ACAD_GROUP
350
D
3
ACAD_MLINESTYLE
350
17
0
DICTIONARY
5
D
100
AcDbDictionary
0
DICTIONARY
5
1A
330
C
100
AcDbDictionary
0
DICTIONARY
5
17
100
AcDbDictionary
0
ENDSEC
0
EOF
