0
SECTION
2
HEADER
9
$INSUNITS
70
4
9
$ACADVER
1
AC1014
9
$HANDSEED
5
FFFF
0
ENDSEC
0
SECTION
2
TABLES
0
TABLE
2
VPORT
5
8
100
AcDbSymbolTable
0
ENDTAB
0
TABLE
2
LTYPE
5
5
100
AcDbSymbolTable
0
LTYPE
5
14
100
AcDbSymbolTableRecord
100
AcDbLinetypeTableRecord
2
BYBLOCK
70
0
0
LTYPE
5
15
100
AcDbSymbolTableRecord
100
AcDbLinetypeTableRecord
2
BYLAYER
70
0
0
ENDTAB
0
TABLE
2
LAYER
5
2
100
AcDbSymbolTable
70
2
0
LAYER
5
50
100
AcDbSymbolTableRecord
100
AcDbLayerTableRecord
2
0
70
0
6
CONTINUOUS
0
ENDTAB
0
TABLE
2
STYLE
5
3
100
AcDbSymbolTable
70
1
0
STYLE
5
11
100
AcDbSymbolTableRecord
100
AcDbTextStyleTableRecord
2
STANDARD
70
0
0
ENDTAB
0
TABLE
2
VIEW
5
6
100
AcDbSymbolTable
70
0
0
ENDTAB
0
TABLE
2
UCS
5
7
100
AcDbSymbolTable
70
0
0
ENDTAB
0
TABLE
2
APPID
5
9
100
AcDbSymbolTable
70
2
0
APPID
5
12
100
AcDbSymbolTableRecord
100
AcDbRegAppTableRecord
2
ACAD
70
0
0
ENDTAB
0
TABLE
2
DIMSTYLE
5
A
100
AcDbSymbolTable
70
1
0
ENDTAB
0
TABLE
2
BLOCK_RECORD
5
1
100
AcDbSymbolTable
70
1
0
BLOCK_RECORD
5
1F
100
AcDbSymbolTableRecord
100
AcDbBlockTableRecord
2
*MODEL_SPACE
0
BLOCK_RECORD
5
1B
100
AcDbSymbolTableRecord
100
AcDbBlockTableRecord
2
*PAPER_SPACE
0
ENDTAB
0
ENDSEC
0
SECTION
2
BLOCKS
0
BLOCK
5
20
100
AcDbEntity
100
AcDbBlockBegin
2
*MODEL_SPACE
0
ENDBLK
5
21
100
AcDbEntity
100
AcDbBlockEnd
0
BLOCK
5
1C
100
AcDbEntity
100
AcDbBlockBegin
2
*PAPER_SPACE
0
ENDBLK
5
1D
100
AcDbEntity
100
AcDbBlockEnd
0
ENDSEC
0
SECTION
2
ENTITIES
0
LWPOLYLINE
5
100
100
AcDbEntity
8
0
100
AcDbPolyline
90
29
70
1
43
0.0
10
115.25000009145811
20
-0.28106019022271056
42
0.41421356237309503
10
116.00000009145809
20
0.46893980977729122
10
116.00000009145811
20
2.6972406011677896
42
0.19891236737963355
10
115.12132043501697
20
4.8185609447272597
10
110.78634171893312
20
9.1535396608114912
42
0.66817861869065831
10
99.00000009145721
20
4.2714767408184944
10
99.000000091457707
20
-11.081060190222614
42
-0.64575131106460282
10
97.338562263691543
20
-11.831060190222589
42
0.18267581368159821
10
95.354248780393092
20
-11.081060190222614
10
77.000000091457707
20
-11.081060190222614
42
0.41421356237309503
10
74.000000091457707
20
-14.081060190222612
10
74.000000091457721
20
-28.081060190222612
42
0.41421356237309503
10
77.000000091457707
20
-31.081060190222637
10
100.23603906077881
20
-31.081060190222619
42
0.19891236737966206
10
103.06446618552505
20
-29.909487314968764
10
109.30000009145786
20
-23.673953409035875
42
-0.19891236737955192
10
110.00710687264413
20
-23.381060190222712
10
113.00000009145811
20
-23.381060190222712
42
0.41421356237309503
10
116.00000009145808
20
-20.381060190222712
10
116.00000009145811
20
-16.431060190222713
42
0.41421356237309503
10
115.25000009145811
20
-15.681060190222711
10
113.50000009145811
20
-15.68106019022272
42
-0.99999999999999989
10
113.50000009145811
20
-13.2810601902227
10
115.25000009145811
20
-13.281060190222714
42
0.41421356237309503
10
116.00000009145809
20
-12.531060190222716
10
116.00000009145811
20
-3.4310601902227145
42
0.41421356237309503
10
115.25000009145811
20
-2.6810601902227127
10
113.50000009145811
20
-2.6810601902226994
42
-0.99999999999999989
10
113.50000009145811
20
-0.28106019022272388
0
CIRCLE
5
101
100
AcDbEntity
8
0
100
AcDbCircle
10
-93.820814845029204
20
-21.081060190222608
30
4.4779262964310015e-07
40
2.750000000000008
210
-1.9078746951759159e-22
220
-1.0457772234410041e-23
230
-1
0
CIRCLE
5
102
100
AcDbEntity
8
0
100
AcDbCircle
10
-81.500000091457707
20
-21.081060190222608
30
4.4779266517023927e-07
40
2.75
210
-1.9078746971480682e-22
220
-1.0457772234410041e-23
230
-1
0
CIRCLE
5
103
100
AcDbEntity
8
0
100
AcDbCircle
10
-101.50000009145811
20
-14.48106019022271
30
4.4779266517023546e-07
40
1.2000000000000099
210
-1.9078746971480682e-22
220
-1.0457772234410041e-23
230
-1
0
CIRCLE
5
104
100
AcDbEntity
8
0
100
AcDbCircle
10
-111.50000002395211
20
-6.0810601902227113
30
4.4779266517023339e-07
40
1.4365000000000103
210
-1.9078747010923727e-22
220
-1.0457772234410041e-23
230
-1
0
CIRCLE
5
105
100
AcDbEntity
8
0
100
AcDbCircle
10
-106.0000000239491
20
4.3939398097772919
30
4.477926651702344e-07
40
4.9365000000000103
210
-1.9078746991202204e-22
220
-1.0457772234410041e-23
230
-1
0
CIRCLE
5
106
100
AcDbEntity
8
0
100
AcDbCircle
10
-104.8500000914581
20
-18.581060190222715
30
4.4779266517023482e-07
40
1.7000000000000002
210
-1.9078746991202204e-22
220
-1.0457772234410041e-23
230
-1
0
ENDSEC
0
SECTION
2
OBJECTS
0
DICTIONARY
5
C
100
AcDbDictionary
3
ACAD_GROUP
350
D
3
ACAD_MLINESTYLE
350
17
0
DICTIONARY
5
D
100
AcDbDictionary
0
DICTIONARY
5
1A
330
C
100
AcDbDictionary
0
DICTIONARY
5
17
100
AcDbDictionary
0
ENDSEC
0
EOF
