0
SECTION
2
HEADER
9
$INSUNITS
70
4
9
$ACADVER
1
AC1014
9
$HANDSEED
5
FFFF
0
ENDSEC
0
SECTION
2
TABLES
0
TABLE
2
VPORT
5
8
100
AcDbSymbolTable
0
ENDTAB
0
TABLE
2
LTYPE
5
5
100
AcDbSymbolTable
0
LTYPE
5
14
100
AcDbSymbolTableRecord
100
AcDbLinetypeTableRecord
2
BYBLOCK
70
0
0
LTYPE
5
15
100
AcDbSymbolTableRecord
100
AcDbLinetypeTableRecord
2
BYLAYER
70
0
0
ENDTAB
0
TABLE
2
LAYER
5
2
100
AcDbSymbolTable
70
2
0
LAYER
5
50
100
AcDbSymbolTableRecord
100
AcDbLayerTableRecord
2
0
70
0
6
CONTINUOUS
0
ENDTAB
0
TABLE
2
STYLE
5
3
100
AcDbSymbolTable
70
1
0
STYLE
5
11
100
AcDbSymbolTableRecord
100
AcDbTextStyleTableRecord
2
STANDARD
70
0
0
ENDTAB
0
TABLE
2
VIEW
5
6
100
AcDbSymbolTable
70
0
0
ENDTAB
0
TABLE
2
UCS
5
7
100
AcDbSymbolTable
70
0
0
ENDTAB
0
TABLE
2
APPID
5
9
100
AcDbSymbolTable
70
2
0
APPID
5
12
100
AcDbSymbolTableRecord
100
AcDbRegAppTableRecord
2
ACAD
70
0
0
ENDTAB
0
TABLE
2
DIMSTYLE
5
A
100
AcDbSymbolTable
70
1
0
ENDTAB
0
TABLE
2
BLOCK_RECORD
5
1
100
AcDbSymbolTable
70
1
0
BLOCK_RECORD
5
1F
100
AcDbSymbolTableRecord
100
AcDbBlockTableRecord
2
*MODEL_SPACE
0
BLOCK_RECORD
5
1B
100
AcDbSymbolTableRecord
100
AcDbBlockTableRecord
2
*PAPER_SPACE
0
ENDTAB
0
ENDSEC
0
SECTION
2
BLOCKS
0
BLOCK
5
20
100
AcDbEntity
100
AcDbBlockBegin
2
*MODEL_SPACE
0
ENDBLK
5
21
100
AcDbEntity
100
AcDbBlockEnd
0
BLOCK
5
1C
100
AcDbEntity
100
AcDbBlockBegin
2
*PAPER_SPACE
0
ENDBLK
5
1D
100
AcDbEntity
100
AcDbBlockEnd
0
ENDSEC
0
SECTION
2
ENTITIES
0
LWPOLYLINE
5
100
100
AcDbEntity
8
0
100
AcDbPolyline
90
52
70
1
43
0.0
10
24.535533905932965
20
-128.29289131146481
42
0.66817863791932508
10
25.242640687119465
20
-129.99999809265142
10
99.000000000000171
20
-129.99999809265145
42
0.41421356237309503
10
100.00000000000016
20
-128.99999809265142
10
100.00000000000017
20
-101.11803208140134
42
0.2134217652833785
10
99.666666666666885
20
-100.37267608890146
42
-1.0572796962675153
10
100.37267799625019
20
-99.666664759318152
42
0.21342176528339049
10
101.11803398875018
20
-99.999998092651452
10
129.00000000000017
20
-99.999998092651452
42
0.41421356237309503
10
130.00000000000017
20
-98.999998092651452
10
130.00000000000017
20
-79.999998092651452
42
0.41421356237309503
10
129.00000000000017
20
-78.999998092651452
10
110.41421356237319
20
-78.999998092651424
42
0.19891236737956006
10
109.70710678118691
20
-79.292891311464601
10
102.29289321881346
20
-86.707104873838233
42
-0.19891236737956014
10
101.58578643762718
20
-86.999998092651424
10
-101.58578643762682
20
-86.999998092651353
42
-0.19891236737956014
10
-102.29289321881311
20
-86.707104873838162
10
-109.70710678118681
20
-79.2928913114648
42
0.19891236737956175
10
-110.41421356237282
20
-78.999998092651339
10
-128.99999999999983
20
-78.999998092651367
42
0.41421356237309503
10
-129.99999999999983
20
-79.999998092651353
10
-129.99999999999983
20
-98.999998092651367
42
0.41421356237309503
10
-128.99999999999983
20
-99.999998092651353
10
-101.11803398874983
20
-99.999998092651367
42
0.2134217652833916
10
-100.37267799624983
20
-99.666664759318095
42
-1.0572796962675099
10
-99.666666666666529
20
-100.37267608890136
42
0.2134217652833785
10
-99.999999999999829
20
-101.11803208140128
10
-99.999999999999844
20
-128.99999809265137
42
0.41421356237309503
10
-98.999999999999844
20
-129.99999809265137
10
-25.242640687119149
20
-129.9999980926514
42
0.66817863791927312
10
-24.535533905932546
20
-128.2928913114649
10
-25.386385847127841
20
-127.4420393702696
42
0.21342176528337056
10
-26.149134384218044
20
-127.15069535397046
42
-1.0572796962675159
10
-26.149134384218048
20
-126.15224455648473
42
0.21342176528337331
10
-25.386385847127848
20
-125.86090054018548
10
-24.139097552462143
20
-124.6136122455197
42
0.21342176528342013
10
-23.84775353616293
20
-123.85086370842939
42
-1.057279696274199
10
-22.849302738677515
20
-123.8508637084359
42
0.21342176528339193
10
-22.557958722388189
20
-124.61361224552995
10
-17.464466094222143
20
-129.7071048738288
42
0.19891236738303911
10
-16.757359313026345
20
-129.9999980926514
10
16.757359313026662
20
-129.99999809265142
42
0.19891236738304038
10
17.464466094222409
20
-129.70710487382877
10
22.557958722407761
20
-124.61361224554921
42
0.21342176528338871
10
22.849302738677842
20
-123.85086370843592
42
-1.0572796962741748
10
23.847753536163239
20
-123.85086370842942
42
0.21342176528341361
10
24.139097552462413
20
-124.61361224551976
10
25.38638584712816
20
-125.86090054018553
42
0.21342176528336598
10
26.149134384218357
20
-126.15224455648473
42
-1.0572796962675244
10
26.149134384218357
20
-127.15069535397049
42
0.21342176528336917
10
25.386385847128167
20
-127.44203937026961
0
LWPOLYLINE
5
101
100
AcDbEntity
8
0
100
AcDbPolyline
90
4
70
1
43
0.0
10
-38.384776310850043
20
-105.95836753230881
42
0.99999999999999989
10
-44.041630560342419
20
-111.61522178180118
10
-32.020815280171121
20
-123.63603706197247
42
0.99999999999999989
10
-26.363961030678738
20
-117.97918281248009
0
LWPOLYLINE
5
102
100
AcDbEntity
8
0
100
AcDbPolyline
90
4
70
1
43
0.0
10
44.041630560342753
20
-111.61522178180121
42
0.99999999999999989
10
38.384776310850377
20
-105.95836753230883
10
26.363961030679079
20
-117.97918281248013
42
0.99999999999999989
10
32.020815280171462
20
-123.63603706197252
0
CIRCLE
5
103
100
AcDbEntity
8
0
100
AcDbCircle
10
39.500000000000171
20
-94.740998092651438
30
-7.629394520591859e-06
40
4.8730000000000011
210
8.7370315195732567e-24
220
-2.7771178869131477e-24
230
1
0
CIRCLE
5
104
100
AcDbEntity
8
0
100
AcDbCircle
10
-39.499999999999829
20
-94.740998092651424
30
-7.629394520591859e-06
40
4.8730000000000011
210
8.7370315195732567e-24
220
-2.7771178869131477e-24
230
1
0
CIRCLE
5
105
100
AcDbEntity
8
0
100
AcDbCircle
10
-25.786999999999832
20
-95.499998092651424
30
-7.629394520591859e-06
40
1.7000000000000002
210
8.7370315195732567e-24
220
-2.7771178869131477e-24
230
1
0
CIRCLE
5
106
100
AcDbEntity
8
0
100
AcDbCircle
10
25.78700000000017
20
-95.499998092651438
30
-7.629394520591859e-06
40
1.7000000000000002
210
8.7370315195732567e-24
220
-2.7771178869131477e-24
230
1
0
CIRCLE
5
107
100
AcDbEntity
8
0
100
AcDbCircle
10
-52.999999999999829
20
-92.999998092651396
30
-7.629394520591859e-06
40
1.7000000000000002
210
8.7370315195732567e-24
220
-2.7771178869131477e-24
230
1
0
CIRCLE
5
108
100
AcDbEntity
8
0
100
AcDbCircle
10
-83.999999999999829
20
-92.999998092651396
30
-7.629394520591859e-06
40
1.7000000000000002
210
8.7370315195732567e-24
220
-2.7771178869131477e-24
230
1
0
CIRCLE
5
109
100
AcDbEntity
8
0
100
AcDbCircle
10
-83.999999999999844
20
-123.99999809265138
30
-7.629394520591859e-06
40
1.7000000000000002
210
8.7370315195732567e-24
220
-2.7771178869131477e-24
230
1
0
CIRCLE
5
110
100
AcDbEntity
8
0
100
AcDbCircle
10
-68.499999999999829
20
-108.4999980926514
30
-7.629394520591859e-06
40
6.4365000000000103
210
8.7370315195732567e-24
220
-2.7771178869131477e-24
230
1
0
CIRCLE
5
111
100
AcDbEntity
8
0
100
AcDbCircle
10
-82.499999999999829
20
-111.99999809265137
30
-7.629394520591859e-06
40
1.4365000000000003
210
8.7370315195732567e-24
220
-2.7771178869131477e-24
230
1
0
CIRCLE
5
112
100
AcDbEntity
8
0
100
AcDbCircle
10
-122.49999999999983
20
-92.499998092651396
30
-7.629394520591859e-06
40
1.7000000000000002
210
8.7370315195732567e-24
220
-2.7771178869131477e-24
230
1
0
CIRCLE
5
113
100
AcDbEntity
8
0
100
AcDbCircle
10
-52.999999999999837
20
-123.9999980926514
30
-7.629394520591859e-06
40
1.7000000000000002
210
8.7370315195732567e-24
220
-2.7771178869131477e-24
230
1
0
CIRCLE
5
114
100
AcDbEntity
8
0
100
AcDbCircle
10
-111.49999999999983
20
-82.999998092651396
30
-7.629394520591859e-06
40
1.4365000000000003
210
8.7370315195732567e-24
220
-2.7771178869131477e-24
230
1
0
CIRCLE
5
115
100
AcDbEntity
8
0
100
AcDbCircle
10
111.50000000000018
20
-82.999998092651467
30
-7.629394520591859e-06
40
1.4365000000000003
210
8.7370315195732567e-24
220
-2.7771178869131477e-24
230
1
0
CIRCLE
5
116
100
AcDbEntity
8
0
100
AcDbCircle
10
53.000000000000178
20
-123.99999809265142
30
-7.629394520591859e-06
40
1.7000000000000002
210
8.7370315195732567e-24
220
-2.7771178869131477e-24
230
1
0
CIRCLE
5
117
100
AcDbEntity
8
0
100
AcDbCircle
10
122.50000000000017
20
-92.499998092651481
30
-7.629394520591859e-06
40
1.7000000000000002
210
8.7370315195732567e-24
220
-2.7771178869131477e-24
230
1
0
CIRCLE
5
118
100
AcDbEntity
8
0
100
AcDbCircle
10
82.500000000000171
20
-111.99999809265144
30
-7.629394520591859e-06
40
1.4365000000000003
210
8.7370315195732567e-24
220
-2.7771178869131477e-24
230
1
0
CIRCLE
5
119
100
AcDbEntity
8
0
100
AcDbCircle
10
68.500000000000171
20
-108.49999809265142
30
-7.629394520591859e-06
40
6.4365000000000103
210
8.7370315195732567e-24
220
-2.7771178869131477e-24
230
1
0
CIRCLE
5
120
100
AcDbEntity
8
0
100
AcDbCircle
10
84.000000000000171
20
-123.99999809265142
30
-7.629394520591859e-06
40
1.7000000000000002
210
8.7370315195732567e-24
220
-2.7771178869131477e-24
230
1
0
CIRCLE
5
121
100
AcDbEntity
8
0
100
AcDbCircle
10
84.000000000000185
20
-92.999998092651452
30
-7.629394520591859e-06
40
1.7000000000000002
210
8.7370315195732567e-24
220
-2.7771178869131477e-24
230
1
0
CIRCLE
5
122
100
AcDbEntity
8
0
100
AcDbCircle
10
53.000000000000185
20
-92.999998092651438
30
-7.629394520591859e-06
40
1.7000000000000002
210
8.7370315195732567e-24
220
-2.7771178869131477e-24
230
1
0
CIRCLE
5
123
100
AcDbEntity
8
0
100
AcDbCircle
10
1.635267606075802e-13
20
-114.99999809265141
30
-7.629394520591859e-06
40
11.500000000000002
210
8.7370315195732567e-24
220
-2.7771178869131477e-24
230
1
0
ENDSEC
0
SECTION
2
OBJECTS
0
DICTIONARY
5
C
100
AcDbDictionary
3
ACAD_GROUP
350
D
3
ACAD_MLINESTYLE
350
17
0
DICTIONARY
5
D
100
AcDbDictionary
0
DICTIONARY
5
1A
330
C
100
AcDbDictionary
0
DICTIONARY
5
17
100
AcDbDictionary
0
ENDSEC
0
EOF
